<svg xmlns="http://www.w3.org/2000/svg" viewBox="0 0 512 512">
  <rect width="512" height="512" rx="96" fill="#1c1917"/>
  <defs>
    <mask id="largeMask">
      <rect width="512" height="512" fill="white"/>
      <path d="M185 100 C185 100 120 185 120 245 C120 282 148 312 185 312 C222 312 250 282 250 245 C250 185 185 100 185 100Z"
            fill="black" stroke="black" stroke-width="36"/>
    </mask>
  </defs>
  <path d="M280 60 C280 60 172 200 172 310 C172 370 220 420 280 420 C340 420 388 370 388 310 C388 200 280 60 280 60Z"
        fill="none" stroke="#d97706" stroke-width="28" stroke-linejoin="round" mask="url(#largeMask)"/>
  <path d="M185 100 C185 100 120 185 120 245 C120 282 148 312 185 312 C222 312 250 282 250 245 C250 185 185 100 185 100Z"
        fill="none" stroke="#d97706" stroke-width="24" stroke-linejoin="round"/>
</svg>
